<?xml version="1.0" encoding="UTF-8"?>
<svg id="a" data-name="Layer 1" xmlns="http://www.w3.org/2000/svg" width="109.7" height="32" xmlns:xlink="http://www.w3.org/1999/xlink" viewBox="0 0 109.7 32">
  <defs>
    <style>
      .f {
        filter: url(#b);
      }

      .g {
        filter: url(#d);
      }
    </style>
    <filter id="b" data-name="drop-shadow-1" filterUnits="userSpaceOnUse">
      <feOffset dx="1" dy="1"/>
      <feGaussianBlur result="c" stdDeviation="1"/>
      <feFlood flood-color="#000" flood-opacity=".2"/>
      <feComposite in2="c" operator="in"/>
      <feComposite in="SourceGraphic"/>
    </filter>
    <filter id="d" data-name="drop-shadow-3" filterUnits="userSpaceOnUse">
      <feOffset dx="1" dy="1"/>
      <feGaussianBlur result="e" stdDeviation="1"/>
      <feFlood flood-color="#000" flood-opacity=".2"/>
      <feComposite in2="e" operator="in"/>
      <feComposite in="SourceGraphic"/>
    </filter>
  </defs>
  <path class="f" d="M8,2.3C3.8,3.4,1.4,7.6,2.5,11.7c1.1,4.1,9.1,10.9,10.7,10.5s5.3-10.3,4.2-14.4S12.1,1.2,8,2.3ZM3.5,6.8c.5-1,1.1-1.9,2-2.5,0,0,0,0,0,0,0,0,0,0,0,0,0,0,0,0,0,.1-.3,.8-.6,1.7-.6,2.7,0,0,0,0,0,0,0,0,0,0,0,0s0,0,0,0c-.5,0-.9-.1-1.3-.2,0,0,0,0,0,0,0,0,0,0,0,0Zm-.3,.9s0,0,0,0,0,0,0,0c.5,.1,1,.2,1.6,.3,0,0,.1,0,.1,.1,0,.8,.1,1.7,.3,2.5,0,0,0,.1,0,.1l-2.1,.6s0,0,0,0c0,0,0,0,0,0-.2-1.1-.2-2.3,.2-3.4Zm2,7.2s0,0-.1,0c-.8-.8-1.5-1.8-1.8-2.9,0,0,0,0,0,0,0,0,0,0,0,0l2.1-.6c0,0,.1,0,.1,0,.2,.8,.6,1.6,1,2.3,0,0,0,.1,0,.1-.5,.3-.9,.7-1.2,1,0,0,0,0,0,0Zm3.7,1.8s0,0,0,0,0,0,0,0c-1.1-.2-2.1-.6-3-1.2,0,0,0,0,0,0,0,0,0,0,0,0,.3-.3,.6-.6,1-.8,0,0,0,0,0,0s0,0,0,0c0,0,0,0,0,0,.6,.8,1.2,1.5,1.9,2,0,0,0,0,0,.1Zm2.5-.1s0,0,0,0c0,0,0,0,0,0s0,0,0,0c-1.2,0-2.6-.9-3.7-2.5,0,0,0,0,0,0,0,0,0,0,0,0,.8-.4,1.7-.8,2.7-1.1,0,0,0,0,0,0,0,0,0,0,0,0,0,0,0,0,0,0l.9,3.6Zm-1.2-4.5c0,0,0,.1,0,.1-1,.3-2,.7-2.9,1.2,0,0,0,0,0,0,0,0,0,0,0,0,0,0,0,0,0,0-.4-.7-.6-1.4-.9-2.1,0,0,0,0,0,0,0,0,0,0,0,0l3.3-.9c0,0,.1,0,.1,0l.5,1.8Zm-.7-2.7c0,0,0,.1,0,.1l-3.3,.9s0,0,0,0c0,0,0,0,0,0-.2-.8-.3-1.5-.3-2.3,0,0,0,0,0,0,0,0,0,0,0,0s0,0,0,0c1,0,2-.1,3.1-.4,0,0,.1,0,.1,0l.5,1.8Zm-.7-2.7s0,0,0,0c0,0,0,0,0,0s0,0,0,0c-1,.2-1.9,.3-2.9,.3,0,0,0,0,0,0,0,0,0,0,0,0,.1-2,.9-3.5,2-4,0,0,0,0,0,0,0,0,0,0,0,0,0,0,0,0,0,0l.9,3.6Zm5.9-2.1s0,0,.1,0c.8,.8,1.5,1.8,1.8,2.9,0,0,0,0,0,0,0,0,0,0,0,0l-2.1,.6c0,0-.1,0-.1,0-.2-.8-.6-1.6-1-2.3,0,0,0-.1,0-.1,.5-.3,.9-.7,1.2-1,0,0,0,0,0,0Zm-3.7-1.8s0,0,0,0,0,0,0,0c1.1,.2,2.1,.6,3,1.2,0,0,0,0,0,0,0,0,0,0,0,0-.3,.3-.6,.6-1,.8,0,0,0,0,0,0s0,0,0,0c0,0,0,0,0,0-.6-.8-1.2-1.5-1.9-2,0,0,0,0,0-.1Zm-2.5,.1s0,0,0,0c0,0,0,0,0,0s0,0,0,0c1.2,0,2.6,.9,3.7,2.5,0,0,0,0,0,0,0,0,0,0,0,0-.8,.4-1.7,.8-2.7,1.1,0,0,0,0,0,0,0,0,0,0,0,0,0,0,0,0,0,0l-.9-3.6Zm1.2,4.5c0,0,0-.1,0-.1,1-.3,2-.7,2.9-1.2,0,0,0,0,0,0,0,0,0,0,0,0,0,0,0,0,0,0,.4,.7,.6,1.4,.9,2.1,0,0,0,0,0,0s0,0,0,0l-3.3,.9c0,0-.1,0-.1,0l-.5-1.8Zm.7,2.7c0,0,0-.1,0-.1l3.3-.9s0,0,0,0c0,0,0,0,0,0,.2,.8,.3,1.5,.3,2.3,0,0,0,0,0,0,0,0,0,0,0,0s0,0,0,0c-1,0-2,.1-3.1,.4,0,0-.1,0-.1,0l-.5-1.8Zm1.8,6.3s0,0,0,0c0,0,0,0,0,0,0,0,0,0,0,0l-.9-3.6s0,0,0,0c0,0,0,0,0,0s0,0,0,0c1-.2,1.9-.3,2.9-.3,0,0,0,0,0,0,0,0,0,0,0,0-.1,2-.9,3.5-2,4Zm4.2-3.7c-.4,1-1.1,1.9-2,2.5,0,0,0,0,0,0,0,0,0,0,0,0,0,0,0,0,0-.1,.3-.8,.6-1.7,.6-2.7,0,0,0,0,0,0,0,0,0,0,0,0s0,0,0,0c.5,0,.9,.1,1.3,.2,0,0,0,0,0,0,0,0,0,0,0,0Zm.3-.9s0,0,0,0,0,0,0,0c-.5-.1-1-.2-1.6-.3,0,0-.1,0-.1-.1,0-.8-.1-1.7-.3-2.5,0,0,0-.1,0-.1l2.1-.6s0,0,0,0c0,0,0,0,0,0,.2,1.1,.2,2.3-.2,3.4Z"/>
  <g class="g">
    <path d="M30.9,21.7c-.9,.3-2.5,.8-4.3,.8s-4-.6-5.3-1.8c-1.2-1.1-1.9-2.9-1.9-5,0-4.3,3-7,7.5-7s3,.3,3.6,.6l-.5,2c-.7-.3-1.6-.6-3.1-.6-2.9,0-4.9,1.7-4.9,4.8s1.9,4.9,4.7,4.9,1.5-.1,1.9-.3v-3.4h-2.4v-1.9h4.8v6.8Z"/>
    <path d="M34.7,18.6c0,1.6,1.3,2.3,2.7,2.3s1.8-.1,2.4-.4l.3,1.5c-.8,.3-1.8,.5-3.1,.5-2.8,0-4.5-1.7-4.5-4.4s1.5-4.7,4.3-4.7,3.8,2.3,3.8,4.3,0,.7,0,.9h-5.9Zm3.9-1.5c0-.8-.3-2.1-1.8-2.1s-1.9,1.2-2,2.1h3.9Z"/>
    <path d="M50.6,17.9c0,3.2-2.3,4.7-4.5,4.7s-4.4-1.7-4.4-4.5,1.9-4.6,4.5-4.6,4.4,1.8,4.4,4.5Zm-6.6,0c0,1.7,.8,3,2.2,3s2.1-1.2,2.1-3-.6-2.9-2.1-2.9-2.2,1.5-2.2,3Z"/>
    <path d="M63.1,17.1c0-1.7-.2-3.6-.2-5.4h0c-.4,1.6-1,3.3-1.5,4.9l-1.9,5.5h-1.8l-1.7-5.5c-.5-1.6-.9-3.4-1.3-5h0c0,1.7-.1,3.7-.2,5.5l-.3,5.1h-2.2l.9-12.8h3.1l1.7,5.1c.5,1.5,.9,3,1.2,4.4h0c.3-1.4,.8-3,1.3-4.5l1.8-5.1h3l.7,12.8h-2.3l-.2-5.2Z"/>
    <path d="M72.5,22.3v-1h-.2c-.5,.7-1.5,1.2-2.6,1.2-1.8,0-2.8-1.3-2.8-2.6,0-2.2,2-3.3,5.2-3.3h0c0-.7-.2-1.7-1.8-1.7s-1.8,.3-2.4,.6l-.4-1.4c.6-.4,1.8-.8,3.2-.8,2.8,0,3.6,1.8,3.6,3.7v3.2c0,.8,0,1.6,.1,2.1h-2Zm-.3-4.3c-1.6,0-3.1,.3-3.1,1.6s.6,1.3,1.3,1.3,1.5-.6,1.7-1.2c0-.2,0-.3,0-.5v-1.2Z"/>
    <path d="M76.4,16.4c0-1.2,0-2,0-2.8h1.9v1.7h.1c.4-1.2,1.5-1.9,2.4-1.9s.3,0,.5,0v2.1c-.2,0-.4,0-.6,0-1.1,0-1.8,.7-2,1.7,0,.2,0,.4,0,.7v4.5h-2.2v-5.9Z"/>
    <path d="M84.7,17.4h0c.2-.3,.5-.7,.7-1l2.1-2.8h2.7l-3.2,3.6,3.7,5.2h-2.7l-2.5-3.9-.8,.9v3h-2.2V9.6h2.2v7.9Z"/>
    <path d="M92.6,18.6c0,1.6,1.3,2.3,2.7,2.3s1.8-.1,2.4-.4l.3,1.5c-.8,.3-1.8,.5-3.1,.5-2.8,0-4.5-1.7-4.5-4.4s1.5-4.7,4.3-4.7,3.8,2.3,3.8,4.3,0,.7,0,.9h-5.9Zm3.9-1.5c0-.8-.3-2.1-1.8-2.1s-1.9,1.2-2,2.1h3.9Z"/>
    <path d="M100.1,16.4c0-1.2,0-2,0-2.8h1.9v1.7h.1c.4-1.2,1.5-1.9,2.4-1.9s.3,0,.5,0v2.1c-.2,0-.4,0-.6,0-1.1,0-1.8,.7-2,1.7,0,.2,0,.4,0,.7v4.5h-2.2v-5.9Z"/>
  </g>
</svg>