<?xml version="1.0" encoding="utf-8"?>
<!-- Generator: Adobe Illustrator 27.0.0, SVG Export Plug-In . SVG Version: 6.00 Build 0)  -->
<svg version="1.1" id="Layer_1" xmlns="http://www.w3.org/2000/svg" xmlns:xlink="http://www.w3.org/1999/xlink" x="0px" y="0px"
	 width="213px" height="43.6px" viewBox="0 0 213 43.6" style="enable-background:new 0 0 213 43.6;" xml:space="preserve">
<style type="text/css">
	.st0{opacity:0.22;}
	.st1{fill:#121A56;}
	.st2{fill:#FFFFFF;}
	.st3{fill:#0065F8;}
	.st4{fill:none;stroke:#FFD82E;stroke-width:3;stroke-miterlimit:10;}
</style>
<g class="st0">
	<path class="st1" d="M26.9,21.9h4.7v10.2c-2.8,2.2-6.7,3.2-10.5,3.2c-8.3,0-14.5-5.5-14.5-13.1S12.8,9,21.2,9
		c4.5,0,8.2,1.4,10.8,4.2l-3.1,2.9c-2.1-2-4.5-2.9-7.4-2.9c-5.7,0-9.7,3.7-9.7,9c0,5.2,4,9,9.7,9c1.9,0,3.8-0.4,5.5-1.3L26.9,21.9
		L26.9,21.9z"/>
	<path class="st1" d="M53.2,26.7H37.1c0.6,2.9,3.1,4.7,6.6,4.7c2.3,0,4.1-0.7,5.6-2.1l2.6,2.8c-1.8,2.1-4.7,3.2-8.2,3.2
		c-6.9,0-11.3-4.2-11.3-10s4.5-10,10.6-10c6,0,10.4,4,10.4,10.1C53.3,25.7,53.2,26.2,53.2,26.7z M37.1,23.6h11.6
		c-0.4-2.8-2.7-4.8-5.8-4.8C39.8,18.9,37.6,20.8,37.1,23.6z"/>
	<path class="st1" d="M54,25.2c0-5.8,4.6-10,10.9-10c6.4,0,10.9,4.1,10.9,10s-4.6,10-10.9,10C58.6,35.2,54,31,54,25.2z M71,25.2
		c0-3.7-2.6-6.1-6.1-6.1c-3.5,0-6.1,2.4-6.1,6.1c0,3.7,2.6,6.1,6.1,6.1C68.4,31.3,71,28.9,71,25.2z"/>
	<path class="st1" d="M119.8,35l0-16.9l-8.8,14h-2.2l-8.8-13.8v16.7h-4.8V9.4h4.1l10.7,16.9l10.5-16.9h4.1l0,25.5
		C124.5,34.9,119.8,34.9,119.8,35z"/>
	<path class="st1" d="M144.6,23.5V35h-4.5v-2.4c-1.1,1.7-3.4,2.6-6.4,2.6c-4.7,0-7.6-2.5-7.6-5.8c0-3.2,2.3-5.8,8.5-5.8h5.3v-0.3
		c0-2.7-1.7-4.2-5.1-4.2c-2.3,0-4.7,0.7-6.2,1.9l-1.9-3.3c2.2-1.6,5.4-2.4,8.7-2.4C141.2,15.2,144.6,17.9,144.6,23.5z M139.8,28.9
		v-2.3h-4.9c-3.3,0-4.1,1.2-4.1,2.6c0,1.6,1.5,2.7,3.9,2.7C136.9,31.9,139,30.9,139.8,28.9z"/>
	<path class="st1" d="M158.1,15.2v4.3c-0.4-0.1-0.8-0.1-1.1-0.1c-3.6,0-5.9,2-5.9,6v9.4h-4.8V15.5h4.6v2.8
		C152.2,16.3,154.7,15.2,158.1,15.2z"/>
	<path class="st1" d="M167.8,26.6l-3.6,3.2V35h-4.8V7.9h4.8v16.4l9.9-8.8h5.8l-8.6,8.2l9.4,11.3h-5.8L167.8,26.6z"/>
	<path class="st1" d="M197.8,26.7h-16.1c0.6,2.9,3.1,4.7,6.6,4.7c2.3,0,4.1-0.7,5.6-2.1l2.6,2.8c-1.8,2.1-4.7,3.2-8.2,3.2
		c-6.9,0-11.3-4.2-11.3-10s4.5-10,10.6-10c6,0,10.4,4,10.4,10.1C197.9,25.7,197.9,26.2,197.8,26.7z M181.7,23.6h11.6
		c-0.4-2.8-2.6-4.8-5.8-4.8C184.4,18.9,182.2,20.8,181.7,23.6z"/>
	<path class="st1" d="M210.7,15.2v4.3c-0.4-0.1-0.8-0.1-1.1-0.1c-3.6,0-5.9,2-5.9,6v9.4h-4.8V15.5h4.6v2.8
		C204.8,16.3,207.3,15.2,210.7,15.2z"/>
</g>
<g>
	<path class="st2" d="M25.9,20.9h4.7v10.2c-2.8,2.2-6.7,3.2-10.5,3.2c-8.3,0-14.5-5.5-14.5-13.1S11.8,8,20.2,8
		c4.5,0,8.2,1.4,10.8,4.2l-3.1,2.9c-2.1-2-4.5-2.9-7.4-2.9c-5.7,0-9.7,3.7-9.7,9c0,5.2,4,9,9.7,9c1.9,0,3.8-0.4,5.5-1.3L25.9,20.9
		L25.9,20.9z"/>
	<path class="st2" d="M52.2,25.7H36.1c0.6,2.9,3.1,4.7,6.6,4.7c2.3,0,4.1-0.7,5.6-2.1l2.6,2.8c-1.8,2.1-4.7,3.2-8.2,3.2
		c-6.9,0-11.3-4.2-11.3-10s4.5-10,10.6-10c6,0,10.4,4,10.4,10.1C52.3,24.7,52.2,25.2,52.2,25.7z M36.1,22.6h11.6
		c-0.4-2.8-2.7-4.8-5.8-4.8C38.8,17.9,36.6,19.8,36.1,22.6z"/>
	<path class="st2" d="M53,24.2c0-5.8,4.6-10,10.9-10c6.4,0,10.9,4.1,10.9,10s-4.6,10-10.9,10C57.6,34.2,53,30,53,24.2z M70,24.2
		c0-3.7-2.6-6.1-6.1-6.1c-3.5,0-6.1,2.4-6.1,6.1c0,3.7,2.6,6.1,6.1,6.1C67.4,30.3,70,27.9,70,24.2z"/>
	<path class="st2" d="M118.8,34l0-16.9l-8.8,14h-2.2l-8.8-13.8v16.7h-4.8V8.4h4.1l10.7,16.9l10.5-16.9h4.1l0,25.5
		C123.5,33.9,118.8,33.9,118.8,34z"/>
	<path class="st2" d="M143.6,22.5V34h-4.5v-2.4c-1.1,1.7-3.4,2.6-6.4,2.6c-4.7,0-7.6-2.5-7.6-5.8c0-3.2,2.3-5.8,8.5-5.8h5.3v-0.3
		c0-2.7-1.7-4.2-5.1-4.2c-2.3,0-4.7,0.7-6.2,1.9l-1.9-3.3c2.2-1.6,5.4-2.4,8.7-2.4C140.2,14.2,143.6,16.9,143.6,22.5z M138.8,27.9
		v-2.3h-4.9c-3.3,0-4.1,1.2-4.1,2.6c0,1.6,1.5,2.7,3.9,2.7C135.9,30.9,138,29.9,138.8,27.9z"/>
	<path class="st2" d="M157.1,14.2v4.3c-0.4-0.1-0.8-0.1-1.1-0.1c-3.6,0-5.9,2-5.9,6v9.4h-4.8V14.5h4.6v2.8
		C151.2,15.3,153.7,14.2,157.1,14.2z"/>
	<path class="st2" d="M166.8,25.6l-3.6,3.2V34h-4.8V6.9h4.8v16.4l9.9-8.8h5.8l-8.6,8.2l9.4,11.3h-5.8L166.8,25.6z"/>
	<path class="st2" d="M196.8,25.7h-16.1c0.6,2.9,3.1,4.7,6.6,4.7c2.3,0,4.1-0.7,5.6-2.1l2.6,2.8c-1.8,2.1-4.7,3.2-8.2,3.2
		c-6.9,0-11.3-4.2-11.3-10s4.5-10,10.6-10c6,0,10.4,4,10.4,10.1C196.9,24.7,196.9,25.2,196.8,25.7z M180.7,22.6h11.6
		c-0.4-2.8-2.6-4.8-5.8-4.8C183.4,17.9,181.2,19.8,180.7,22.6z"/>
	<path class="st2" d="M209.7,14.2v4.3c-0.4-0.1-0.8-0.1-1.1-0.1c-3.6,0-5.9,2-5.9,6v9.4h-4.8V14.5h4.6v2.8
		C203.8,15.3,206.3,14.2,209.7,14.2z"/>
</g>
<g>
	<path class="st3" d="M-30.5,15.7V7C-31.1,9.8-31.2,12.8-30.5,15.7z"/>
</g>
<path class="st4" d="M85.1,23.3c-4-2.6-9.4-5.7-10.6-8.8c-0.8-2.1-0.8-4.3,0-6.4c0.9-2.1,2.5-3.7,4.5-4.5l0,0
	c4.3-1.7,9.1,0.3,10.9,4.5c0.1,0.2,0.3,0.9,0.3,0.9s0,10.3,0,12.6S88.3,25.4,85.1,23.3z"/>
</svg>
