<?xml version="1.0" encoding="utf-8"?>
<!-- Generator: Adobe Illustrator 27.0.0, SVG Export Plug-In . SVG Version: 6.00 Build 0)  -->
<svg version="1.1" id="a" xmlns="http://www.w3.org/2000/svg" xmlns:xlink="http://www.w3.org/1999/xlink" x="0px" y="0px"
	 viewBox="0 0 210 35.9" style="enable-background:new 0 0 210 35.9;" xml:space="preserve">
<style type="text/css">
	.st0{fill:#FFFFFF;}
</style>
<path class="st0" d="M-0.3,27.2c0-0.6,0.1-1.4,0.3-2.2l3.7-14.9C5,4.7,9.3,3,15.8,3c5.6,0,8.9,1.2,8.9,5c0,0.6-0.1,1.3-0.3,2.1
	l-0.8,3.5h-7l0.6-2.7c0.1-0.6,0.2-1.1,0.2-1.6c0-1.2-0.7-1.9-2.7-1.9c-2.7,0-3.6,1.1-4.2,3.6L7.2,24.1c-0.2,0.7-0.3,1.3-0.3,1.8
	c0,1.3,0.7,1.9,2.7,1.9c2.7,0,3.7-1,4.2-3.6l0.8-3.3h-3.2l1.3-5.3H23L20.7,25c-1.3,5.4-5.8,7.2-12.1,7.2C3.1,32.2-0.3,30.9-0.3,27.2
	z"/>
<path class="st0" d="M42.9,15.5c0,0.6-0.1,1.4-0.3,2.2l-1.3,5.4h-12l-0.6,2.4c-0.1,0.4-0.1,0.7-0.1,1c0,0.9,0.5,1.6,2.2,1.6
	c2.2,0,2.9-0.8,3.1-1.9l0.4-1.5h6.6l-0.3,1.4c-1.1,4.2-5,5.9-10.8,5.9c-5.1,0-7.9-1.2-7.9-4.7c0-0.6,0.1-1.4,0.3-2.2l1.9-7.6
	c1.1-5.1,4.9-6.8,10.9-6.8C39.9,10.7,42.9,12,42.9,15.5z M30.1,19.5h5.4l0.4-1.9c0.1-0.5,0.2-0.9,0.2-1.3c0-1-0.5-1.6-2.1-1.6
	c-2.2,0-3,1.2-3.5,2.9L30.1,19.5z"/>
<path class="st0" d="M41.5,27.4c0-0.6,0.1-1.4,0.3-2.2l1.9-7.6c1.3-5.2,5.2-6.9,11.1-6.9c5,0,8,1.2,8,4.8c0,0.6-0.1,1.3-0.3,2.1
	l-1.9,7.6c-1.3,5.2-5.3,6.9-11.2,6.9C44.5,32.2,41.5,31,41.5,27.4z M54,25.3l1.9-7.7c0.1-0.4,0.2-0.8,0.2-1.2c0-1-0.6-1.7-2.2-1.7
	c-2.2,0-3.1,1.2-3.5,2.9l-1.9,7.7c-0.1,0.4-0.1,0.8-0.1,1.1c0,1.1,0.6,1.7,2.2,1.7C52.7,28.2,53.6,27,54,25.3z"/>
<path class="st0" d="M95.3,3.5l-7,28.2h-6.6l4.8-19.5L76.4,31.8h-4.5l-0.5-19.6l-4.8,19.5h-5.8l7-28.2h9.4l0.3,17l8.5-17H95.3z"/>
<path class="st0" d="M114.1,11.3L109,31.8h-5.5l-0.1-2.4c-1.6,1.9-3.7,2.9-6.3,2.9c-3.8,0-5.8-1.2-5.8-4.3c0-0.7,0.1-1.5,0.3-2.5
	l1.9-7.7c1.3-5.1,4.3-7,8.6-7c2.8,0,4.6,0.8,5.3,2.6l1.1-2.1C108.5,11.3,114.1,11.3,114.1,11.3z M103.9,25.7l0.3-1.3l1.7-6.9
	c0-0.2,0-0.4,0-0.6c0-1-0.5-2.1-2.2-2.1c-2.3,0-3.1,1.1-3.6,3.1l-1.8,7.4c-0.1,0.5-0.2,0.9-0.2,1.3c0,1.1,0.6,1.7,2.2,1.7
	C102.5,28.3,103.6,26.8,103.9,25.7z"/>
<path class="st0" d="M132.2,14.3c0,0.6-0.1,1.3-0.3,2.2l-0.5,2.1h-6.7l0.3-1.3c0.1-0.5,0.1-0.8,0.1-1.1c0-0.9-0.4-1.2-1.3-1.2
	c-1.2,0-2.3,0.9-2.9,3l-3.4,13.8h-6.7l5-20.3h5.5l0.1,2.3c1.5-1.9,3.2-2.9,5.9-2.9C130.3,10.8,132.2,11.6,132.2,14.3z"/>
<path class="st0" d="M147.5,20l2.2,11.7h-6.9l-1.7-8.4h-3l-2.1,8.4h-6.7l7-28.2h6.7l-3.8,15.4h2.9l5-7.5h6.3L147.5,20z"/>
<path class="st0" d="M171.2,15.5c0,0.6-0.1,1.4-0.3,2.2l-1.3,5.4h-12l-0.6,2.4c-0.1,0.4-0.1,0.7-0.1,1c0,0.9,0.5,1.6,2.2,1.6
	c2.2,0,2.9-0.8,3.1-1.9l0.4-1.5h6.6l-0.3,1.4c-1.1,4.2-5,5.9-10.8,5.9c-5.1,0-7.9-1.2-7.9-4.7c0-0.6,0.1-1.4,0.3-2.2l1.9-7.6
	c1.3-5.2,5.1-6.9,11.1-6.9C168.2,10.7,171.2,12,171.2,15.5z M158.4,19.5h5.4l0.4-1.9c0.1-0.5,0.2-0.9,0.2-1.3c0-1-0.5-1.6-2.1-1.6
	c-2.2,0-3,1.2-3.5,2.9L158.4,19.5z"/>
<path class="st0" d="M190.1,14.3c0,0.6-0.1,1.3-0.3,2.2l-0.5,2.1h-6.7l0.3-1.3c0.1-0.5,0.1-0.8,0.1-1.1c0-0.9-0.4-1.2-1.3-1.2
	c-1.2,0-2.3,0.9-2.9,3l-3.4,13.8h-6.7l5-20.3h5.5l0.1,2.3c1.5-1.9,3.2-2.9,5.9-2.9C188.3,10.8,190.1,11.6,190.1,14.3z"/>
<path class="st0" d="M204.2,3.2c-3-2-7-1.2-9,1.8c-1.5,2.3-1.6,9.1-1.5,12.3c0,0.8,0.8,1.3,1.5,1c2.9-1.2,9.2-3.9,10.7-6.1
	C207.9,9.2,207.1,5.2,204.2,3.2z"/>
</svg>
