<?xml version="1.0" encoding="utf-8"?>
<!-- Generator: Adobe Illustrator 27.0.0, SVG Export Plug-In . SVG Version: 6.00 Build 0)  -->
<svg version="1.1" id="Layer_1" xmlns="http://www.w3.org/2000/svg" xmlns:xlink="http://www.w3.org/1999/xlink" x="0px" y="0px"
	 width="710.9px" height="88.16px" viewBox="0 0 710.9 88.16" style="enable-background:new 0 0 710.9 88.16;" xml:space="preserve"
	>
<style type="text/css">
	.st0{opacity:0.22;}
	.st1{fill:url(#SVGID_1_);}
	.st2{fill:url(#SVGID_00000033334649469742984400000001609031812499011467_);}
	.st3{fill:url(#SVGID_00000124158037994028639180000004882972711769862569_);}
	.st4{fill:url(#SVGID_00000116915081771312598720000009799903263780285847_);}
	.st5{fill:url(#SVGID_00000089560679097191264830000004977159390663078041_);}
	.st6{fill:url(#SVGID_00000159445641511143776500000004490134967457360295_);}
	.st7{fill:url(#SVGID_00000137104968847457477550000009774222136700235424_);}
	.st8{fill:url(#SVGID_00000082360163443629989000000002765903947334957981_);}
	.st9{fill:url(#SVGID_00000049183803022942053200000004140087225199593641_);}
	.st10{fill:url(#SVGID_00000050629012602228136320000005987621416097710990_);}
	.st11{fill:url(#SVGID_00000000206267132309842300000013235629300806367905_);}
	.st12{fill:url(#SVGID_00000147904909618832549110000009429335864624160904_);}
	.st13{fill:url(#SVGID_00000053531502406174231200000014451609706042046111_);}
	.st14{fill:url(#SVGID_00000142154187469023535670000016326420092694801798_);}
	.st15{fill:url(#SVGID_00000082351570703031502530000006955610983669106106_);}
	.st16{fill:url(#SVGID_00000073714320032967454730000001349565034615397526_);}
	.st17{fill:url(#SVGID_00000075132297679124800830000004088597161978256769_);}
	.st18{fill:url(#SVGID_00000102519725411503799930000006195872092870862469_);}
	.st19{opacity:0.1;}
	.st20{fill:url(#SVGID_00000084509859679708773990000016156515567472579468_);}
	.st21{fill:url(#SVGID_00000177445242192669427120000015615589929796552627_);}
	.st22{fill:url(#SVGID_00000142155193165883807220000010951488063879786636_);}
	.st23{fill:url(#SVGID_00000141454149469118810440000002150218955555334325_);}
	.st24{fill:url(#SVGID_00000063630343030738405010000017029030329970127794_);}
	.st25{fill:url(#SVGID_00000170965176716625502180000017195164050643073959_);}
	.st26{fill:url(#SVGID_00000075158313603180901120000014847572561067352474_);}
	.st27{fill:url(#SVGID_00000019647481915270902350000016470875412432096656_);}
	.st28{fill:url(#SVGID_00000101086329500994040490000000119030606312353173_);}
	.st29{fill:url(#SVGID_00000071549865135234474160000017271660182027726738_);}
	.st30{fill:url(#SVGID_00000151538460775959571550000011232558436605704121_);}
	.st31{fill:url(#SVGID_00000115487840976761664620000016559488079249987254_);}
	.st32{fill:url(#SVGID_00000014606555131024780430000014696905389751198655_);}
	.st33{fill:url(#SVGID_00000006699239325649899000000005501882151602089656_);}
	.st34{fill:url(#SVGID_00000121996482739017914530000016152166215189355414_);}
	.st35{fill:url(#SVGID_00000026877537152298094000000008056916113576806313_);}
	.st36{fill:url(#SVGID_00000064327906712715002730000005487329916661371032_);}
	.st37{fill:url(#SVGID_00000080187023889256640060000004681139840589710774_);}
	.st38{fill:url(#SVGID_00000025409815733007694580000011562163544890890652_);}
	.st39{fill:url(#SVGID_00000030466605953116825050000008263151891203628204_);}
	.st40{fill:url(#SVGID_00000178907551606719231620000016268543282741217433_);}
	.st41{fill:url(#SVGID_00000005963173211665081130000008590118561958487460_);}
	.st42{fill:url(#SVGID_00000000216239410208853010000006044439317176007050_);}
	.st43{fill:url(#SVGID_00000061461914441220745300000011144097694567322810_);}
	.st44{fill:url(#SVGID_00000078019767696126568020000002455136855796584845_);}
	.st45{fill:url(#SVGID_00000153704919398600241570000001674957408340426932_);}
	.st46{fill:url(#SVGID_00000066511889232306804880000017679425349139816108_);}
	.st47{fill:url(#SVGID_00000090277440068948959890000004011005009377485502_);}
	.st48{fill:url(#SVGID_00000008145997366698684020000008804797867839688086_);}
	.st49{fill:url(#SVGID_00000150785241819469836090000001466585036500237237_);}
	.st50{fill:url(#SVGID_00000159468882738309233930000009388726706526522755_);}
	.st51{fill:url(#SVGID_00000070811052254690163970000008839681664081472420_);}
	.st52{fill:url(#SVGID_00000088824358385972520600000005022951304301921416_);}
	.st53{opacity:0.07;fill:none;stroke:#000000;stroke-width:3;stroke-miterlimit:10;}
	.st54{opacity:0.07;fill:none;stroke:#000000;stroke-miterlimit:10;}
	.st55{opacity:0.07;fill:none;stroke:#000000;stroke-width:0.75;stroke-miterlimit:10;}
</style>
<g class="st0">
	<g>
		<g>
			<g>
				<g>
					<g>
						<g>
							<linearGradient id="SVGID_1_" gradientUnits="userSpaceOnUse" x1="792.3874" y1="422.4733" x2="803.0143" y2="422.4733">
								<stop  offset="0" style="stop-color:#FFFFFF"/>
								<stop  offset="1" style="stop-color:#000000"/>
							</linearGradient>
							<path class="st1" d="M797.7,427.79c-2.93,0-5.31-2.38-5.31-5.31c0-2.93,2.38-5.31,5.31-5.31c2.93,0,5.31,2.38,5.31,5.31
								C803.01,425.41,800.64,427.79,797.7,427.79z"/>
						</g>
					</g>
				</g>
			</g>
			<g>
				<g>
					<g>
						<g>
							
								<linearGradient id="SVGID_00000144314991185226873720000016914673143751263155_" gradientUnits="userSpaceOnUse" x1="792.3874" y1="443.3476" x2="803.0143" y2="443.3476">
								<stop  offset="0" style="stop-color:#FFFFFF"/>
								<stop  offset="1" style="stop-color:#000000"/>
							</linearGradient>
							<path style="fill:url(#SVGID_00000144314991185226873720000016914673143751263155_);" d="M797.7,448.66
								c-2.93,0-5.31-2.38-5.31-5.31c0-2.93,2.38-5.31,5.31-5.31c2.93,0,5.31,2.38,5.31,5.31
								C803.01,446.28,800.64,448.66,797.7,448.66z"/>
						</g>
					</g>
				</g>
			</g>
			<g>
				<g>
					<g>
						<g>
							
								<linearGradient id="SVGID_00000170240826411193665020000015713873822931658685_" gradientUnits="userSpaceOnUse" x1="792.3874" y1="464.2222" x2="803.0143" y2="464.2222">
								<stop  offset="0" style="stop-color:#FFFFFF"/>
								<stop  offset="1" style="stop-color:#000000"/>
							</linearGradient>
							<path style="fill:url(#SVGID_00000170240826411193665020000015713873822931658685_);" d="M797.7,469.54
								c-2.93,0-5.31-2.38-5.31-5.31c0-2.93,2.38-5.31,5.31-5.31c2.93,0,5.31,2.38,5.31,5.31
								C803.01,467.16,800.64,469.54,797.7,469.54z"/>
						</g>
					</g>
				</g>
			</g>
			<g>
				<g>
					<g>
						<g>
							
								<linearGradient id="SVGID_00000147211147119428207960000006832289083025222073_" gradientUnits="userSpaceOnUse" x1="792.3874" y1="485.0965" x2="803.0143" y2="485.0965">
								<stop  offset="0" style="stop-color:#FFFFFF"/>
								<stop  offset="1" style="stop-color:#000000"/>
							</linearGradient>
							<path style="fill:url(#SVGID_00000147211147119428207960000006832289083025222073_);" d="M797.7,490.41
								c-2.93,0-5.31-2.38-5.31-5.31c0-2.93,2.38-5.31,5.31-5.31c2.93,0,5.31,2.38,5.31,5.31
								C803.01,488.03,800.64,490.41,797.7,490.41z"/>
						</g>
					</g>
				</g>
			</g>
			<g>
				<g>
					<g>
						<g>
							
								<linearGradient id="SVGID_00000049932063699334080420000012421892642461994381_" gradientUnits="userSpaceOnUse" x1="792.3874" y1="505.9709" x2="803.0143" y2="505.9709">
								<stop  offset="0" style="stop-color:#FFFFFF"/>
								<stop  offset="1" style="stop-color:#000000"/>
							</linearGradient>
							<path style="fill:url(#SVGID_00000049932063699334080420000012421892642461994381_);" d="M797.7,511.28
								c-2.93,0-5.31-2.38-5.31-5.31c0-2.93,2.38-5.31,5.31-5.31c2.93,0,5.31,2.38,5.31,5.31
								C803.01,508.91,800.64,511.28,797.7,511.28z"/>
						</g>
					</g>
				</g>
			</g>
			<g>
				<g>
					<g>
						<g>
							
								<linearGradient id="SVGID_00000150067573025942475020000014797155793821913760_" gradientUnits="userSpaceOnUse" x1="792.3874" y1="526.8454" x2="803.0143" y2="526.8454">
								<stop  offset="0" style="stop-color:#FFFFFF"/>
								<stop  offset="1" style="stop-color:#000000"/>
							</linearGradient>
							<path style="fill:url(#SVGID_00000150067573025942475020000014797155793821913760_);" d="M797.7,532.16
								c-2.93,0-5.31-2.38-5.31-5.31c0-2.93,2.38-5.31,5.31-5.31c2.93,0,5.31,2.38,5.31,5.31
								C803.01,529.78,800.64,532.16,797.7,532.16z"/>
						</g>
					</g>
				</g>
			</g>
		</g>
	</g>
	<g>
		<g>
			<g>
				<g>
					<g>
						<g>
							
								<linearGradient id="SVGID_00000161632334752816210980000008631038998709833113_" gradientUnits="userSpaceOnUse" x1="769.2604" y1="422.4733" x2="779.8873" y2="422.4733">
								<stop  offset="0" style="stop-color:#FFFFFF"/>
								<stop  offset="1" style="stop-color:#000000"/>
							</linearGradient>
							<path style="fill:url(#SVGID_00000161632334752816210980000008631038998709833113_);" d="M774.57,427.79
								c-2.93,0-5.31-2.38-5.31-5.31c0-2.93,2.38-5.31,5.31-5.31c2.93,0,5.31,2.38,5.31,5.31
								C779.89,425.41,777.51,427.79,774.57,427.79z"/>
						</g>
					</g>
				</g>
			</g>
			<g>
				<g>
					<g>
						<g>
							
								<linearGradient id="SVGID_00000010989325730575818960000000656159688408392586_" gradientUnits="userSpaceOnUse" x1="769.2604" y1="443.3476" x2="779.8873" y2="443.3476">
								<stop  offset="0" style="stop-color:#FFFFFF"/>
								<stop  offset="1" style="stop-color:#000000"/>
							</linearGradient>
							<path style="fill:url(#SVGID_00000010989325730575818960000000656159688408392586_);" d="M774.57,448.66
								c-2.93,0-5.31-2.38-5.31-5.31c0-2.93,2.38-5.31,5.31-5.31c2.93,0,5.31,2.38,5.31,5.31
								C779.89,446.28,777.51,448.66,774.57,448.66z"/>
						</g>
					</g>
				</g>
			</g>
			<g>
				<g>
					<g>
						<g>
							
								<linearGradient id="SVGID_00000128446686311491179730000011221263344446168482_" gradientUnits="userSpaceOnUse" x1="769.2604" y1="464.2222" x2="779.8873" y2="464.2222">
								<stop  offset="0" style="stop-color:#FFFFFF"/>
								<stop  offset="1" style="stop-color:#000000"/>
							</linearGradient>
							<path style="fill:url(#SVGID_00000128446686311491179730000011221263344446168482_);" d="M774.57,469.54
								c-2.93,0-5.31-2.38-5.31-5.31c0-2.93,2.38-5.31,5.31-5.31c2.93,0,5.31,2.38,5.31,5.31
								C779.89,467.16,777.51,469.54,774.57,469.54z"/>
						</g>
					</g>
				</g>
			</g>
			<g>
				<g>
					<g>
						<g>
							
								<linearGradient id="SVGID_00000067941028333825143620000017196558167830555807_" gradientUnits="userSpaceOnUse" x1="769.2604" y1="485.0965" x2="779.8873" y2="485.0965">
								<stop  offset="0" style="stop-color:#FFFFFF"/>
								<stop  offset="1" style="stop-color:#000000"/>
							</linearGradient>
							<path style="fill:url(#SVGID_00000067941028333825143620000017196558167830555807_);" d="M774.57,490.41
								c-2.93,0-5.31-2.38-5.31-5.31c0-2.93,2.38-5.31,5.31-5.31c2.93,0,5.31,2.38,5.31,5.31
								C779.89,488.03,777.51,490.41,774.57,490.41z"/>
						</g>
					</g>
				</g>
			</g>
			<g>
				<g>
					<g>
						<g>
							
								<linearGradient id="SVGID_00000145767266984143063810000012417286587443494280_" gradientUnits="userSpaceOnUse" x1="769.2604" y1="505.9709" x2="779.8873" y2="505.9709">
								<stop  offset="0" style="stop-color:#FFFFFF"/>
								<stop  offset="1" style="stop-color:#000000"/>
							</linearGradient>
							<path style="fill:url(#SVGID_00000145767266984143063810000012417286587443494280_);" d="M774.57,511.28
								c-2.93,0-5.31-2.38-5.31-5.31c0-2.93,2.38-5.31,5.31-5.31c2.93,0,5.31,2.38,5.31,5.31
								C779.89,508.91,777.51,511.28,774.57,511.28z"/>
						</g>
					</g>
				</g>
			</g>
			<g>
				<g>
					<g>
						<g>
							
								<linearGradient id="SVGID_00000036227285556173615320000009998499359698517399_" gradientUnits="userSpaceOnUse" x1="769.2604" y1="526.8454" x2="779.8873" y2="526.8454">
								<stop  offset="0" style="stop-color:#FFFFFF"/>
								<stop  offset="1" style="stop-color:#000000"/>
							</linearGradient>
							<path style="fill:url(#SVGID_00000036227285556173615320000009998499359698517399_);" d="M774.57,532.16
								c-2.93,0-5.31-2.38-5.31-5.31c0-2.93,2.38-5.31,5.31-5.31c2.93,0,5.31,2.38,5.31,5.31
								C779.89,529.78,777.51,532.16,774.57,532.16z"/>
						</g>
					</g>
				</g>
			</g>
		</g>
	</g>
	<g>
		<g>
			<g>
				<g>
					<g>
						<g>
							
								<linearGradient id="SVGID_00000015354687418082401060000016217206859726543498_" gradientUnits="userSpaceOnUse" x1="746.1334" y1="422.4733" x2="756.7603" y2="422.4733">
								<stop  offset="0" style="stop-color:#FFFFFF"/>
								<stop  offset="1" style="stop-color:#000000"/>
							</linearGradient>
							<path style="fill:url(#SVGID_00000015354687418082401060000016217206859726543498_);" d="M751.45,427.79
								c-2.93,0-5.31-2.38-5.31-5.31c0-2.93,2.38-5.31,5.31-5.31c2.93,0,5.31,2.38,5.31,5.31
								C756.76,425.41,754.38,427.79,751.45,427.79z"/>
						</g>
					</g>
				</g>
			</g>
			<g>
				<g>
					<g>
						<g>
							
								<linearGradient id="SVGID_00000111152689196489318700000006958707579602796470_" gradientUnits="userSpaceOnUse" x1="746.1334" y1="443.3476" x2="756.7603" y2="443.3476">
								<stop  offset="0" style="stop-color:#FFFFFF"/>
								<stop  offset="1" style="stop-color:#000000"/>
							</linearGradient>
							<path style="fill:url(#SVGID_00000111152689196489318700000006958707579602796470_);" d="M751.45,448.66
								c-2.93,0-5.31-2.38-5.31-5.31c0-2.93,2.38-5.31,5.31-5.31c2.93,0,5.31,2.38,5.31,5.31
								C756.76,446.28,754.38,448.66,751.45,448.66z"/>
						</g>
					</g>
				</g>
			</g>
			<g>
				<g>
					<g>
						<g>
							
								<linearGradient id="SVGID_00000169547075922714639620000011439668401260655242_" gradientUnits="userSpaceOnUse" x1="746.1334" y1="464.2222" x2="756.7603" y2="464.2222">
								<stop  offset="0" style="stop-color:#FFFFFF"/>
								<stop  offset="1" style="stop-color:#000000"/>
							</linearGradient>
							<path style="fill:url(#SVGID_00000169547075922714639620000011439668401260655242_);" d="M751.45,469.54
								c-2.93,0-5.31-2.38-5.31-5.31c0-2.93,2.38-5.31,5.31-5.31c2.93,0,5.31,2.38,5.31,5.31
								C756.76,467.16,754.38,469.54,751.45,469.54z"/>
						</g>
					</g>
				</g>
			</g>
			<g>
				<g>
					<g>
						<g>
							
								<linearGradient id="SVGID_00000034077410701737958750000011549648231642333080_" gradientUnits="userSpaceOnUse" x1="746.1334" y1="485.0965" x2="756.7603" y2="485.0965">
								<stop  offset="0" style="stop-color:#FFFFFF"/>
								<stop  offset="1" style="stop-color:#000000"/>
							</linearGradient>
							<path style="fill:url(#SVGID_00000034077410701737958750000011549648231642333080_);" d="M751.45,490.41
								c-2.93,0-5.31-2.38-5.31-5.31c0-2.93,2.38-5.31,5.31-5.31c2.93,0,5.31,2.38,5.31,5.31
								C756.76,488.03,754.38,490.41,751.45,490.41z"/>
						</g>
					</g>
				</g>
			</g>
			<g>
				<g>
					<g>
						<g>
							
								<linearGradient id="SVGID_00000169520708551107540810000011972356040260635581_" gradientUnits="userSpaceOnUse" x1="746.1334" y1="505.9709" x2="756.7603" y2="505.9709">
								<stop  offset="0" style="stop-color:#FFFFFF"/>
								<stop  offset="1" style="stop-color:#000000"/>
							</linearGradient>
							<path style="fill:url(#SVGID_00000169520708551107540810000011972356040260635581_);" d="M751.45,511.28
								c-2.93,0-5.31-2.38-5.31-5.31c0-2.93,2.38-5.31,5.31-5.31c2.93,0,5.31,2.38,5.31,5.31
								C756.76,508.91,754.38,511.28,751.45,511.28z"/>
						</g>
					</g>
				</g>
			</g>
			<g>
				<g>
					<g>
						<g>
							
								<linearGradient id="SVGID_00000075859838844159074790000003094068676284809103_" gradientUnits="userSpaceOnUse" x1="746.1334" y1="526.8454" x2="756.7603" y2="526.8454">
								<stop  offset="0" style="stop-color:#FFFFFF"/>
								<stop  offset="1" style="stop-color:#000000"/>
							</linearGradient>
							<path style="fill:url(#SVGID_00000075859838844159074790000003094068676284809103_);" d="M751.45,532.16
								c-2.93,0-5.31-2.38-5.31-5.31c0-2.93,2.38-5.31,5.31-5.31c2.93,0,5.31,2.38,5.31,5.31
								C756.76,529.78,754.38,532.16,751.45,532.16z"/>
						</g>
					</g>
				</g>
			</g>
		</g>
	</g>
</g>
<g class="st19">
	<g>
		<g>
			<g>
				<g>
					<g>
						<g>
							
								<linearGradient id="SVGID_00000069386457640838059410000006118852842486707624_" gradientUnits="userSpaceOnUse" x1="45" y1="389.8042" x2="59.9501" y2="389.8042">
								<stop  offset="0" style="stop-color:#FFFFFF"/>
								<stop  offset="1" style="stop-color:#000000"/>
							</linearGradient>
							<path style="fill:url(#SVGID_00000069386457640838059410000006118852842486707624_);" d="M59.95,389.8
								c0,4.13-3.35,7.47-7.48,7.47c-4.13,0-7.47-3.35-7.47-7.47c0-4.13,3.35-7.48,7.47-7.48C56.6,382.33,59.95,385.68,59.95,389.8z
								"/>
						</g>
					</g>
				</g>
			</g>
			<g>
				<g>
					<g>
						<g>
							
								<linearGradient id="SVGID_00000144298765255543689670000009113401470251424411_" gradientUnits="userSpaceOnUse" x1="74.3662" y1="389.8042" x2="89.3165" y2="389.8042">
								<stop  offset="0" style="stop-color:#FFFFFF"/>
								<stop  offset="1" style="stop-color:#000000"/>
							</linearGradient>
							<path style="fill:url(#SVGID_00000144298765255543689670000009113401470251424411_);" d="M89.32,389.8
								c0,4.13-3.35,7.47-7.47,7.47c-4.13,0-7.48-3.35-7.48-7.47c0-4.13,3.35-7.48,7.48-7.48C85.97,382.33,89.32,385.68,89.32,389.8
								z"/>
						</g>
					</g>
				</g>
			</g>
			<g>
				<g>
					<g>
						<g>
							
								<linearGradient id="SVGID_00000083796196940117489130000014430963409740755615_" gradientUnits="userSpaceOnUse" x1="103.7326" y1="389.8042" x2="118.6832" y2="389.8042">
								<stop  offset="0" style="stop-color:#FFFFFF"/>
								<stop  offset="1" style="stop-color:#000000"/>
							</linearGradient>
							<path style="fill:url(#SVGID_00000083796196940117489130000014430963409740755615_);" d="M118.68,389.8
								c0,4.13-3.35,7.47-7.48,7.47c-4.13,0-7.48-3.35-7.48-7.47c0-4.13,3.35-7.48,7.48-7.48
								C115.34,382.33,118.68,385.68,118.68,389.8z"/>
						</g>
					</g>
				</g>
			</g>
			<g>
				<g>
					<g>
						<g>
							
								<linearGradient id="SVGID_00000154404854193714210720000018008898870962590117_" gradientUnits="userSpaceOnUse" x1="133.0993" y1="389.8042" x2="148.0496" y2="389.8042">
								<stop  offset="0" style="stop-color:#FFFFFF"/>
								<stop  offset="1" style="stop-color:#000000"/>
							</linearGradient>
							<path style="fill:url(#SVGID_00000154404854193714210720000018008898870962590117_);" d="M148.05,389.8
								c0,4.13-3.35,7.47-7.48,7.47c-4.13,0-7.47-3.35-7.47-7.47c0-4.13,3.35-7.48,7.47-7.48
								C144.7,382.33,148.05,385.68,148.05,389.8z"/>
						</g>
					</g>
				</g>
			</g>
			<g>
				<g>
					<g>
						<g>
							
								<linearGradient id="SVGID_00000019664484278260257900000015405926979095090585_" gradientUnits="userSpaceOnUse" x1="162.4657" y1="389.8042" x2="177.4158" y2="389.8042">
								<stop  offset="0" style="stop-color:#FFFFFF"/>
								<stop  offset="1" style="stop-color:#000000"/>
							</linearGradient>
							<path style="fill:url(#SVGID_00000019664484278260257900000015405926979095090585_);" d="M177.42,389.8
								c0,4.13-3.35,7.47-7.47,7.47c-4.13,0-7.48-3.35-7.48-7.47c0-4.13,3.35-7.48,7.48-7.48
								C174.07,382.33,177.42,385.68,177.42,389.8z"/>
						</g>
					</g>
				</g>
			</g>
			<g>
				<g>
					<g>
						<g>
							
								<linearGradient id="SVGID_00000066482833276196032080000013244626751202421663_" gradientUnits="userSpaceOnUse" x1="191.8323" y1="389.8042" x2="206.7825" y2="389.8042">
								<stop  offset="0" style="stop-color:#FFFFFF"/>
								<stop  offset="1" style="stop-color:#000000"/>
							</linearGradient>
							<path style="fill:url(#SVGID_00000066482833276196032080000013244626751202421663_);" d="M206.78,389.8
								c0,4.13-3.35,7.47-7.48,7.47c-4.13,0-7.47-3.35-7.47-7.47c0-4.13,3.35-7.48,7.47-7.48
								C203.44,382.33,206.78,385.68,206.78,389.8z"/>
						</g>
					</g>
				</g>
			</g>
			<g>
				<g>
					<g>
						<g>
							
								<linearGradient id="SVGID_00000058590959810456939520000012654350546378951585_" gradientUnits="userSpaceOnUse" x1="221.1988" y1="389.8042" x2="236.1489" y2="389.8042">
								<stop  offset="0" style="stop-color:#FFFFFF"/>
								<stop  offset="1" style="stop-color:#000000"/>
							</linearGradient>
							<path style="fill:url(#SVGID_00000058590959810456939520000012654350546378951585_);" d="M236.15,389.8
								c0,4.13-3.35,7.47-7.47,7.47c-4.13,0-7.48-3.35-7.48-7.47c0-4.13,3.35-7.48,7.48-7.48
								C232.8,382.33,236.15,385.68,236.15,389.8z"/>
						</g>
					</g>
				</g>
			</g>
			<g>
				<g>
					<g>
						<g>
							
								<linearGradient id="SVGID_00000148629364781073926980000016238455470340745658_" gradientUnits="userSpaceOnUse" x1="250.565" y1="389.8042" x2="265.5155" y2="389.8042">
								<stop  offset="0" style="stop-color:#FFFFFF"/>
								<stop  offset="1" style="stop-color:#000000"/>
							</linearGradient>
							<path style="fill:url(#SVGID_00000148629364781073926980000016238455470340745658_);" d="M265.52,389.8
								c0,4.13-3.35,7.47-7.48,7.47s-7.48-3.35-7.48-7.47c0-4.13,3.35-7.48,7.48-7.48S265.52,385.68,265.52,389.8z"/>
						</g>
					</g>
				</g>
			</g>
			<g>
				<g>
					<g>
						<g>
							
								<linearGradient id="SVGID_00000062185887602439305620000017141968984683286421_" gradientUnits="userSpaceOnUse" x1="279.9316" y1="389.8042" x2="294.882" y2="389.8042">
								<stop  offset="0" style="stop-color:#FFFFFF"/>
								<stop  offset="1" style="stop-color:#000000"/>
							</linearGradient>
							<path style="fill:url(#SVGID_00000062185887602439305620000017141968984683286421_);" d="M294.88,389.8
								c0,4.13-3.35,7.47-7.48,7.47c-4.13,0-7.47-3.35-7.47-7.47c0-4.13,3.35-7.48,7.47-7.48
								C291.54,382.33,294.88,385.68,294.88,389.8z"/>
						</g>
					</g>
				</g>
			</g>
			<g>
				<g>
					<g>
						<g>
							
								<linearGradient id="SVGID_00000085939084710312824120000017492714269092889239_" gradientUnits="userSpaceOnUse" x1="309.2981" y1="389.8042" x2="324.2482" y2="389.8042">
								<stop  offset="0" style="stop-color:#FFFFFF"/>
								<stop  offset="1" style="stop-color:#000000"/>
							</linearGradient>
							<path style="fill:url(#SVGID_00000085939084710312824120000017492714269092889239_);" d="M324.25,389.8
								c0,4.13-3.35,7.47-7.47,7.47c-4.13,0-7.48-3.35-7.48-7.47c0-4.13,3.35-7.48,7.48-7.48
								C320.9,382.33,324.25,385.68,324.25,389.8z"/>
						</g>
					</g>
				</g>
			</g>
			<g>
				<g>
					<g>
						<g>
							
								<linearGradient id="SVGID_00000080915387366263493540000000212444655589109925_" gradientUnits="userSpaceOnUse" x1="338.6647" y1="389.8042" x2="353.6146" y2="389.8042">
								<stop  offset="0" style="stop-color:#FFFFFF"/>
								<stop  offset="1" style="stop-color:#000000"/>
							</linearGradient>
							<path style="fill:url(#SVGID_00000080915387366263493540000000212444655589109925_);" d="M353.61,389.8
								c0,4.13-3.35,7.47-7.47,7.47c-4.13,0-7.47-3.35-7.47-7.47c0-4.13,3.35-7.48,7.47-7.48
								C350.27,382.33,353.61,385.68,353.61,389.8z"/>
						</g>
					</g>
				</g>
			</g>
		</g>
	</g>
	<g>
		<g>
			<g>
				<g>
					<g>
						<g>
							
								<linearGradient id="SVGID_00000114060322106561327670000000066021772256999813_" gradientUnits="userSpaceOnUse" x1="45" y1="422.3397" x2="59.9501" y2="422.3397">
								<stop  offset="0" style="stop-color:#FFFFFF"/>
								<stop  offset="1" style="stop-color:#000000"/>
							</linearGradient>
							<path style="fill:url(#SVGID_00000114060322106561327670000000066021772256999813_);" d="M59.95,422.34
								c0,4.13-3.35,7.47-7.48,7.47c-4.13,0-7.47-3.35-7.47-7.47c0-4.13,3.35-7.48,7.47-7.48C56.6,414.86,59.95,418.21,59.95,422.34
								z"/>
						</g>
					</g>
				</g>
			</g>
			<g>
				<g>
					<g>
						<g>
							
								<linearGradient id="SVGID_00000036955734110626533900000014771102295134435250_" gradientUnits="userSpaceOnUse" x1="74.3662" y1="422.3397" x2="89.3165" y2="422.3397">
								<stop  offset="0" style="stop-color:#FFFFFF"/>
								<stop  offset="1" style="stop-color:#000000"/>
							</linearGradient>
							<path style="fill:url(#SVGID_00000036955734110626533900000014771102295134435250_);" d="M89.32,422.34
								c0,4.13-3.35,7.47-7.47,7.47c-4.13,0-7.48-3.35-7.48-7.47c0-4.13,3.35-7.48,7.48-7.48
								C85.97,414.86,89.32,418.21,89.32,422.34z"/>
						</g>
					</g>
				</g>
			</g>
			<g>
				<g>
					<g>
						<g>
							
								<linearGradient id="SVGID_00000159437394656394258330000017307544595691705270_" gradientUnits="userSpaceOnUse" x1="103.7326" y1="422.3397" x2="118.6832" y2="422.3397">
								<stop  offset="0" style="stop-color:#FFFFFF"/>
								<stop  offset="1" style="stop-color:#000000"/>
							</linearGradient>
							<path style="fill:url(#SVGID_00000159437394656394258330000017307544595691705270_);" d="M118.68,422.34
								c0,4.13-3.35,7.47-7.48,7.47c-4.13,0-7.48-3.35-7.48-7.47c0-4.13,3.35-7.48,7.48-7.48
								C115.34,414.86,118.68,418.21,118.68,422.34z"/>
						</g>
					</g>
				</g>
			</g>
			<g>
				<g>
					<g>
						<g>
							
								<linearGradient id="SVGID_00000038399906146355736530000014847766908150758060_" gradientUnits="userSpaceOnUse" x1="133.0993" y1="422.3397" x2="148.0496" y2="422.3397">
								<stop  offset="0" style="stop-color:#FFFFFF"/>
								<stop  offset="1" style="stop-color:#000000"/>
							</linearGradient>
							<path style="fill:url(#SVGID_00000038399906146355736530000014847766908150758060_);" d="M148.05,422.34
								c0,4.13-3.35,7.47-7.48,7.47c-4.13,0-7.47-3.35-7.47-7.47c0-4.13,3.35-7.48,7.47-7.48
								C144.7,414.86,148.05,418.21,148.05,422.34z"/>
						</g>
					</g>
				</g>
			</g>
			<g>
				<g>
					<g>
						<g>
							
								<linearGradient id="SVGID_00000114045089528644898030000014924353289317834157_" gradientUnits="userSpaceOnUse" x1="162.4657" y1="422.3397" x2="177.4158" y2="422.3397">
								<stop  offset="0" style="stop-color:#FFFFFF"/>
								<stop  offset="1" style="stop-color:#000000"/>
							</linearGradient>
							<path style="fill:url(#SVGID_00000114045089528644898030000014924353289317834157_);" d="M177.42,422.34
								c0,4.13-3.35,7.47-7.47,7.47c-4.13,0-7.48-3.35-7.48-7.47c0-4.13,3.35-7.48,7.48-7.48
								C174.07,414.86,177.42,418.21,177.42,422.34z"/>
						</g>
					</g>
				</g>
			</g>
			<g>
				<g>
					<g>
						<g>
							
								<linearGradient id="SVGID_00000132063523114066758920000017151221512047300258_" gradientUnits="userSpaceOnUse" x1="191.8323" y1="422.3397" x2="206.7825" y2="422.3397">
								<stop  offset="0" style="stop-color:#FFFFFF"/>
								<stop  offset="1" style="stop-color:#000000"/>
							</linearGradient>
							<path style="fill:url(#SVGID_00000132063523114066758920000017151221512047300258_);" d="M206.78,422.34
								c0,4.13-3.35,7.47-7.48,7.47c-4.13,0-7.47-3.35-7.47-7.47c0-4.13,3.35-7.48,7.47-7.48
								C203.44,414.86,206.78,418.21,206.78,422.34z"/>
						</g>
					</g>
				</g>
			</g>
			<g>
				<g>
					<g>
						<g>
							
								<linearGradient id="SVGID_00000010999019650879552540000016973564018322960040_" gradientUnits="userSpaceOnUse" x1="221.1988" y1="422.3397" x2="236.1489" y2="422.3397">
								<stop  offset="0" style="stop-color:#FFFFFF"/>
								<stop  offset="1" style="stop-color:#000000"/>
							</linearGradient>
							<path style="fill:url(#SVGID_00000010999019650879552540000016973564018322960040_);" d="M236.15,422.34
								c0,4.13-3.35,7.47-7.47,7.47c-4.13,0-7.48-3.35-7.48-7.47c0-4.13,3.35-7.48,7.48-7.48
								C232.8,414.86,236.15,418.21,236.15,422.34z"/>
						</g>
					</g>
				</g>
			</g>
			<g>
				<g>
					<g>
						<g>
							
								<linearGradient id="SVGID_00000098220510577517401890000009474158531479347087_" gradientUnits="userSpaceOnUse" x1="250.565" y1="422.3397" x2="265.5155" y2="422.3397">
								<stop  offset="0" style="stop-color:#FFFFFF"/>
								<stop  offset="1" style="stop-color:#000000"/>
							</linearGradient>
							<path style="fill:url(#SVGID_00000098220510577517401890000009474158531479347087_);" d="M265.52,422.34
								c0,4.13-3.35,7.47-7.48,7.47s-7.48-3.35-7.48-7.47c0-4.13,3.35-7.48,7.48-7.48S265.52,418.21,265.52,422.34z"/>
						</g>
					</g>
				</g>
			</g>
			<g>
				<g>
					<g>
						<g>
							
								<linearGradient id="SVGID_00000001648544688391679500000001803000218953805984_" gradientUnits="userSpaceOnUse" x1="279.9316" y1="422.3397" x2="294.882" y2="422.3397">
								<stop  offset="0" style="stop-color:#FFFFFF"/>
								<stop  offset="1" style="stop-color:#000000"/>
							</linearGradient>
							<path style="fill:url(#SVGID_00000001648544688391679500000001803000218953805984_);" d="M294.88,422.34
								c0,4.13-3.35,7.47-7.48,7.47c-4.13,0-7.47-3.35-7.47-7.47c0-4.13,3.35-7.48,7.47-7.48
								C291.54,414.86,294.88,418.21,294.88,422.34z"/>
						</g>
					</g>
				</g>
			</g>
			<g>
				<g>
					<g>
						<g>
							
								<linearGradient id="SVGID_00000110456425120257272540000012439718014945787812_" gradientUnits="userSpaceOnUse" x1="309.2981" y1="422.3397" x2="324.2482" y2="422.3397">
								<stop  offset="0" style="stop-color:#FFFFFF"/>
								<stop  offset="1" style="stop-color:#000000"/>
							</linearGradient>
							<path style="fill:url(#SVGID_00000110456425120257272540000012439718014945787812_);" d="M324.25,422.34
								c0,4.13-3.35,7.47-7.47,7.47c-4.13,0-7.48-3.35-7.48-7.47c0-4.13,3.35-7.48,7.48-7.48
								C320.9,414.86,324.25,418.21,324.25,422.34z"/>
						</g>
					</g>
				</g>
			</g>
			<g>
				<g>
					<g>
						<g>
							
								<linearGradient id="SVGID_00000153690319356227323570000013391541100282225053_" gradientUnits="userSpaceOnUse" x1="338.6647" y1="422.3397" x2="353.6146" y2="422.3397">
								<stop  offset="0" style="stop-color:#FFFFFF"/>
								<stop  offset="1" style="stop-color:#000000"/>
							</linearGradient>
							<path style="fill:url(#SVGID_00000153690319356227323570000013391541100282225053_);" d="M353.61,422.34
								c0,4.13-3.35,7.47-7.47,7.47c-4.13,0-7.47-3.35-7.47-7.47c0-4.13,3.35-7.48,7.47-7.48
								C350.27,414.86,353.61,418.21,353.61,422.34z"/>
						</g>
					</g>
				</g>
			</g>
		</g>
	</g>
	<g>
		<g>
			<g>
				<g>
					<g>
						<g>
							
								<linearGradient id="SVGID_00000132056353899437294000000004320707116830858171_" gradientUnits="userSpaceOnUse" x1="45" y1="454.8752" x2="59.9501" y2="454.8752">
								<stop  offset="0" style="stop-color:#FFFFFF"/>
								<stop  offset="1" style="stop-color:#000000"/>
							</linearGradient>
							<path style="fill:url(#SVGID_00000132056353899437294000000004320707116830858171_);" d="M59.95,454.88
								c0,4.13-3.35,7.47-7.48,7.47c-4.13,0-7.47-3.35-7.47-7.47c0-4.13,3.35-7.48,7.47-7.48C56.6,447.4,59.95,450.75,59.95,454.88z
								"/>
						</g>
					</g>
				</g>
			</g>
			<g>
				<g>
					<g>
						<g>
							
								<linearGradient id="SVGID_00000155109454461670114040000011263756169361085111_" gradientUnits="userSpaceOnUse" x1="74.3662" y1="454.8752" x2="89.3165" y2="454.8752">
								<stop  offset="0" style="stop-color:#FFFFFF"/>
								<stop  offset="1" style="stop-color:#000000"/>
							</linearGradient>
							<path style="fill:url(#SVGID_00000155109454461670114040000011263756169361085111_);" d="M89.32,454.88
								c0,4.13-3.35,7.47-7.47,7.47c-4.13,0-7.48-3.35-7.48-7.47c0-4.13,3.35-7.48,7.48-7.48C85.97,447.4,89.32,450.75,89.32,454.88
								z"/>
						</g>
					</g>
				</g>
			</g>
			<g>
				<g>
					<g>
						<g>
							
								<linearGradient id="SVGID_00000162345347439239581460000015304570873480797362_" gradientUnits="userSpaceOnUse" x1="103.7326" y1="454.8752" x2="118.6832" y2="454.8752">
								<stop  offset="0" style="stop-color:#FFFFFF"/>
								<stop  offset="1" style="stop-color:#000000"/>
							</linearGradient>
							<path style="fill:url(#SVGID_00000162345347439239581460000015304570873480797362_);" d="M118.68,454.88
								c0,4.13-3.35,7.47-7.48,7.47c-4.13,0-7.48-3.35-7.48-7.47c0-4.13,3.35-7.48,7.48-7.48
								C115.34,447.4,118.68,450.75,118.68,454.88z"/>
						</g>
					</g>
				</g>
			</g>
			<g>
				<g>
					<g>
						<g>
							
								<linearGradient id="SVGID_00000146490839553326648420000014439600854354617220_" gradientUnits="userSpaceOnUse" x1="133.0993" y1="454.8752" x2="148.0496" y2="454.8752">
								<stop  offset="0" style="stop-color:#FFFFFF"/>
								<stop  offset="1" style="stop-color:#000000"/>
							</linearGradient>
							<path style="fill:url(#SVGID_00000146490839553326648420000014439600854354617220_);" d="M148.05,454.88
								c0,4.13-3.35,7.47-7.48,7.47c-4.13,0-7.47-3.35-7.47-7.47c0-4.13,3.35-7.48,7.47-7.48
								C144.7,447.4,148.05,450.75,148.05,454.88z"/>
						</g>
					</g>
				</g>
			</g>
			<g>
				<g>
					<g>
						<g>
							
								<linearGradient id="SVGID_00000160183084445440518400000010461107500357332396_" gradientUnits="userSpaceOnUse" x1="162.4657" y1="454.8752" x2="177.4158" y2="454.8752">
								<stop  offset="0" style="stop-color:#FFFFFF"/>
								<stop  offset="1" style="stop-color:#000000"/>
							</linearGradient>
							<path style="fill:url(#SVGID_00000160183084445440518400000010461107500357332396_);" d="M177.42,454.88
								c0,4.13-3.35,7.47-7.47,7.47c-4.13,0-7.48-3.35-7.48-7.47c0-4.13,3.35-7.48,7.48-7.48
								C174.07,447.4,177.42,450.75,177.42,454.88z"/>
						</g>
					</g>
				</g>
			</g>
			<g>
				<g>
					<g>
						<g>
							
								<linearGradient id="SVGID_00000101824663167413981840000006862307007309840061_" gradientUnits="userSpaceOnUse" x1="191.8323" y1="454.8752" x2="206.7825" y2="454.8752">
								<stop  offset="0" style="stop-color:#FFFFFF"/>
								<stop  offset="1" style="stop-color:#000000"/>
							</linearGradient>
							<path style="fill:url(#SVGID_00000101824663167413981840000006862307007309840061_);" d="M206.78,454.88
								c0,4.13-3.35,7.47-7.48,7.47c-4.13,0-7.47-3.35-7.47-7.47c0-4.13,3.35-7.48,7.47-7.48
								C203.44,447.4,206.78,450.75,206.78,454.88z"/>
						</g>
					</g>
				</g>
			</g>
			<g>
				<g>
					<g>
						<g>
							
								<linearGradient id="SVGID_00000079464539232431415140000002515969854625122443_" gradientUnits="userSpaceOnUse" x1="221.1988" y1="454.8752" x2="236.1489" y2="454.8752">
								<stop  offset="0" style="stop-color:#FFFFFF"/>
								<stop  offset="1" style="stop-color:#000000"/>
							</linearGradient>
							<path style="fill:url(#SVGID_00000079464539232431415140000002515969854625122443_);" d="M236.15,454.88
								c0,4.13-3.35,7.47-7.47,7.47c-4.13,0-7.48-3.35-7.48-7.47c0-4.13,3.35-7.48,7.48-7.48
								C232.8,447.4,236.15,450.75,236.15,454.88z"/>
						</g>
					</g>
				</g>
			</g>
			<g>
				<g>
					<g>
						<g>
							
								<linearGradient id="SVGID_00000057870379108396355810000011579011170535606948_" gradientUnits="userSpaceOnUse" x1="250.565" y1="454.8752" x2="265.5155" y2="454.8752">
								<stop  offset="0" style="stop-color:#FFFFFF"/>
								<stop  offset="1" style="stop-color:#000000"/>
							</linearGradient>
							<path style="fill:url(#SVGID_00000057870379108396355810000011579011170535606948_);" d="M265.52,454.88
								c0,4.13-3.35,7.47-7.48,7.47s-7.48-3.35-7.48-7.47c0-4.13,3.35-7.48,7.48-7.48S265.52,450.75,265.52,454.88z"/>
						</g>
					</g>
				</g>
			</g>
			<g>
				<g>
					<g>
						<g>
							
								<linearGradient id="SVGID_00000101809923945658268900000015417157125820030617_" gradientUnits="userSpaceOnUse" x1="279.9316" y1="454.8752" x2="294.882" y2="454.8752">
								<stop  offset="0" style="stop-color:#FFFFFF"/>
								<stop  offset="1" style="stop-color:#000000"/>
							</linearGradient>
							<path style="fill:url(#SVGID_00000101809923945658268900000015417157125820030617_);" d="M294.88,454.88
								c0,4.13-3.35,7.47-7.48,7.47c-4.13,0-7.47-3.35-7.47-7.47c0-4.13,3.35-7.48,7.47-7.48
								C291.54,447.4,294.88,450.75,294.88,454.88z"/>
						</g>
					</g>
				</g>
			</g>
			<g>
				<g>
					<g>
						<g>
							
								<linearGradient id="SVGID_00000127746089972427791430000001971727195454154662_" gradientUnits="userSpaceOnUse" x1="309.2981" y1="454.8752" x2="324.2482" y2="454.8752">
								<stop  offset="0" style="stop-color:#FFFFFF"/>
								<stop  offset="1" style="stop-color:#000000"/>
							</linearGradient>
							<path style="fill:url(#SVGID_00000127746089972427791430000001971727195454154662_);" d="M324.25,454.88
								c0,4.13-3.35,7.47-7.47,7.47c-4.13,0-7.48-3.35-7.48-7.47c0-4.13,3.35-7.48,7.48-7.48
								C320.9,447.4,324.25,450.75,324.25,454.88z"/>
						</g>
					</g>
				</g>
			</g>
			<g>
				<g>
					<g>
						<g>
							
								<linearGradient id="SVGID_00000170240785059074433060000017658894388984635287_" gradientUnits="userSpaceOnUse" x1="338.6647" y1="454.8752" x2="353.6146" y2="454.8752">
								<stop  offset="0" style="stop-color:#FFFFFF"/>
								<stop  offset="1" style="stop-color:#000000"/>
							</linearGradient>
							<path style="fill:url(#SVGID_00000170240785059074433060000017658894388984635287_);" d="M353.61,454.88
								c0,4.13-3.35,7.47-7.47,7.47c-4.13,0-7.47-3.35-7.47-7.47c0-4.13,3.35-7.48,7.47-7.48
								C350.27,447.4,353.61,450.75,353.61,454.88z"/>
						</g>
					</g>
				</g>
			</g>
		</g>
	</g>
</g>
<path class="st53" d="M302.07-7.38c-19.81,8.15-29.3,30.85-21.15,50.67c6.72,16.34,40.56,36.46,55.07,44.52
	c3.47,1.91,7.75,0.18,8.86-3.65c4.67-15.94,14.6-54.05,7.88-70.39C344.59-6.05,321.93-15.53,302.07-7.38z"/>
<path class="st54" d="M187.21,16.94c-5.11,2.1-7.55,7.95-5.45,13.06c1.73,4.21,10.46,9.4,14.2,11.48c0.9,0.49,2,0.05,2.28-0.94
	c1.21-4.11,3.77-13.94,2.03-18.15C198.17,17.28,192.33,14.83,187.21,16.94z"/>
<path class="st54" d="M214.71,58.67c-2.35,0.97-3.48,3.67-2.51,6.02c0.8,1.94,4.82,4.33,6.54,5.29c0.41,0.23,0.92,0.02,1.05-0.43
	c0.56-1.89,1.73-6.42,0.94-8.36C219.76,58.83,217.07,57.7,214.71,58.67z"/>
<path class="st53" d="M261.25,63.43c-5.35,2.2-7.91,8.33-5.71,13.68c1.82,4.41,10.95,9.85,14.87,12.02
	c0.94,0.52,2.09,0.05,2.39-0.99c1.26-4.3,3.94-14.6,2.13-19.01C272.73,63.79,266.61,61.23,261.25,63.43z"/>
<path class="st55" d="M232.07,28.95c-5.35,2.2-7.91,8.33-5.71,13.68c1.82,4.41,10.95,9.85,14.87,12.02
	c0.94,0.52,2.09,0.05,2.39-0.99c1.26-4.3,3.94-14.6,2.13-19.01C243.55,29.31,237.43,26.75,232.07,28.95z"/>
<path class="st54" d="M59.83-19.39c-5.11,2.1-7.55,7.95-5.45,13.06c1.73,4.21,10.46,9.4,14.2,11.48c0.9,0.49,2,0.05,2.28-0.94
	c1.21-4.11,3.77-13.94,2.03-18.15C70.79-19.05,64.95-21.49,59.83-19.39z"/>
<path class="st54" d="M87.33,22.34c-2.35,0.97-3.48,3.67-2.51,6.02c0.8,1.94,4.82,4.33,6.54,5.29c0.41,0.23,0.92,0.02,1.05-0.43
	c0.56-1.89,1.73-6.42,0.94-8.36C92.38,22.5,89.69,21.38,87.33,22.34z"/>
<path class="st53" d="M133.87,27.1c-5.35,2.2-7.91,8.33-5.71,13.68c1.82,4.41,10.95,9.85,14.87,12.02c0.94,0.52,2.09,0.05,2.39-0.99
	c1.26-4.3,3.94-14.6,2.13-19.01C145.35,27.46,139.23,24.9,133.87,27.1z"/>
<path class="st55" d="M104.69-7.38c-5.35,2.2-7.91,8.33-5.71,13.68c1.82,4.41,10.95,9.85,14.87,12.02c0.94,0.52,2.09,0.05,2.39-0.99
	c1.26-4.3,3.94-14.6,2.13-19.01C116.17-7.02,110.05-9.58,104.69-7.38z"/>
<path class="st54" d="M114.83,63.61c-5.11,2.1-7.55,7.95-5.45,13.06c1.73,4.21,10.46,9.4,14.2,11.48c0.9,0.49,2,0.05,2.28-0.94
	c1.21-4.11,3.77-13.94,2.03-18.15C125.79,63.95,119.95,61.51,114.83,63.61z"/>
<path class="st54" d="M142.33,105.34c-2.35,0.97-3.48,3.67-2.51,6.02c0.8,1.94,4.82,4.33,6.54,5.29c0.41,0.23,0.92,0.02,1.05-0.43
	c0.56-1.89,1.73-6.42,0.94-8.36C147.38,105.5,144.69,104.38,142.33,105.34z"/>
<path class="st53" d="M188.87,110.1c-5.35,2.2-7.91,8.33-5.71,13.68c1.82,4.41,10.95,9.85,14.87,12.02
	c0.94,0.52,2.09,0.05,2.39-0.99c1.26-4.3,3.94-14.6,2.13-19.01C200.35,110.46,194.23,107.9,188.87,110.1z"/>
<path class="st55" d="M159.69,75.62c-5.35,2.2-7.91,8.33-5.71,13.68c1.82,4.41,10.95,9.85,14.87,12.02
	c0.94,0.52,2.09,0.05,2.39-0.99c1.26-4.3,3.94-14.6,2.13-19.01C171.17,75.98,165.05,73.42,159.69,75.62z"/>
<path class="st54" d="M381.83,33.61c-5.11,2.1-7.55,7.95-5.45,13.06c1.73,4.21,10.46,9.4,14.2,11.48c0.9,0.49,2,0.05,2.28-0.94
	c1.21-4.11,3.77-13.94,2.03-18.15C392.79,33.95,386.95,31.51,381.83,33.61z"/>
<path class="st54" d="M409.33,86.34c-2.35,0.97-3.48,3.67-2.51,6.02c0.8,1.94,4.82,4.33,6.54,5.29c0.41,0.23,0.92,0.02,1.05-0.43
	c0.56-1.89,1.73-6.42,0.94-8.36C414.38,86.5,411.69,85.38,409.33,86.34z"/>
<path class="st53" d="M455.87,91.1c-5.35,2.2-7.91,8.33-5.71,13.68c1.82,4.41,10.95,9.85,14.87,12.02c0.94,0.52,2.09,0.05,2.39-0.99
	c1.26-4.3,3.94-14.6,2.13-19.01C467.35,91.46,461.23,88.9,455.87,91.1z"/>
<path class="st55" d="M427.69,49.62c-5.35,2.2-7.91,8.33-5.71,13.68c1.82,4.41,10.95,9.85,14.87,12.02
	c0.94,0.52,2.09,0.05,2.39-0.99c1.26-4.3,3.94-14.6,2.13-19.01C439.17,49.98,433.05,47.42,427.69,49.62z"/>
<path class="st54" d="M363.83-30.39c-5.11,2.1-7.55,7.95-5.45,13.06c1.73,4.21,10.46,9.4,14.2,11.48c0.9,0.49,2,0.05,2.28-0.94
	c1.21-4.11,3.77-13.94,2.03-18.15C374.79-30.05,368.95-32.49,363.83-30.39z"/>
<path class="st54" d="M391.33,11.34c-2.35,0.97-3.48,3.67-2.51,6.02c0.8,1.94,4.82,4.33,6.54,5.29c0.41,0.23,0.92,0.02,1.05-0.43
	c0.56-1.89,1.73-6.42,0.94-8.36C396.38,11.5,393.69,10.38,391.33,11.34z"/>
<path class="st53" d="M437.87,16.1c-5.35,2.2-7.91,8.33-5.71,13.68c1.82,4.41,10.95,9.85,14.87,12.02c0.94,0.52,2.09,0.05,2.39-0.99
	c1.26-4.3,3.94-14.6,2.13-19.01C449.35,16.46,443.23,13.9,437.87,16.1z"/>
<path class="st55" d="M408.69-18.38c-5.35,2.2-7.91,8.33-5.71,13.68c1.82,4.41,10.95,9.85,14.87,12.02
	c0.94,0.52,2.09,0.05,2.39-0.99c1.26-4.3,3.94-14.6,2.13-19.01C420.17-18.02,414.05-20.58,408.69-18.38z"/>
<path class="st54" d="M604.25-7.56c-5.11,2.1-7.55,7.95-5.45,13.06c1.73,4.21,10.46,9.4,14.2,11.48c0.9,0.49,2,0.05,2.28-0.94
	c1.21-4.11,3.77-13.94,2.03-18.15C615.21-7.22,609.37-9.67,604.25-7.56z"/>
<path class="st54" d="M631.76,34.17c-2.35,0.97-3.48,3.67-2.51,6.02c0.8,1.94,4.82,4.33,6.54,5.29c0.41,0.23,0.92,0.02,1.05-0.43
	c0.56-1.89,1.73-6.42,0.94-8.36C636.81,34.33,634.12,33.2,631.76,34.17z"/>
<path class="st55" d="M649.12,4.45c-5.35,2.2-7.91,8.33-5.71,13.68c1.82,4.41,10.95,9.85,14.87,12.02c0.94,0.52,2.09,0.05,2.39-0.99
	c1.26-4.3,3.94-14.6,2.13-19.01C660.6,4.81,654.48,2.25,649.12,4.45z"/>
<path class="st54" d="M476.87-43.89c-5.11,2.1-7.55,7.95-5.45,13.06c1.73,4.21,10.46,9.4,14.2,11.48c0.9,0.49,2,0.05,2.28-0.94
	c1.21-4.11,3.77-13.94,2.03-18.15C487.83-43.55,481.99-45.99,476.87-43.89z"/>
<path class="st54" d="M504.38-2.16c-2.35,0.97-3.48,3.67-2.51,6.02c0.8,1.94,4.82,4.33,6.54,5.29c0.41,0.23,0.92,0.02,1.05-0.43
	c0.56-1.89,1.73-6.42,0.94-8.36C509.43-2,506.74-3.12,504.38-2.16z"/>
<path class="st53" d="M528.91,17.6c-5.35,2.2-7.91,8.33-5.71,13.68c1.82,4.41,10.95,9.85,14.87,12.02c0.94,0.52,2.09,0.05,2.39-0.99
	c1.26-4.3,3.94-14.6,2.13-19.01C540.4,17.96,534.28,15.4,528.91,17.6z"/>
<path class="st55" d="M521.74-31.88c-5.35,2.2-7.91,8.33-5.71,13.68c1.82,4.41,10.95,9.85,14.87,12.02
	c0.94,0.52,2.09,0.05,2.39-0.99c1.26-4.3,3.94-14.6,2.13-19.01C533.22-31.52,527.1-34.08,521.74-31.88z"/>
<path class="st54" d="M506.87,37.11c-5.11,2.1-7.55,7.95-5.45,13.06c1.73,4.21,10.46,9.4,14.2,11.48c0.9,0.49,2,0.05,2.28-0.94
	c1.21-4.11,3.77-13.94,2.03-18.15C517.83,37.45,511.99,35.01,506.87,37.11z"/>
<path class="st54" d="M559.38,80.84c-2.35,0.97-3.48,3.67-2.51,6.02c0.8,1.94,4.82,4.33,6.54,5.29c0.41,0.23,0.92,0.02,1.05-0.43
	c0.56-1.89,1.73-6.42,0.94-8.36C564.43,81,561.74,79.88,559.38,80.84z"/>
<path class="st53" d="M605.91,85.6c-5.35,2.2-7.91,8.33-5.71,13.68c1.82,4.41,10.95,9.85,14.87,12.02c0.94,0.52,2.09,0.05,2.39-0.99
	c1.26-4.3,3.94-14.6,2.13-19.01C617.4,85.96,611.28,83.4,605.91,85.6z"/>
<path class="st55" d="M576.74,51.12c-5.35,2.2-7.91,8.33-5.71,13.68c1.82,4.41,10.95,9.85,14.87,12.02
	c0.94,0.52,2.09,0.05,2.39-0.99c1.26-4.3,3.94-14.6,2.13-19.01C588.22,51.48,582.1,48.92,576.74,51.12z"/>
<path class="st54" d="M-116.11,3.11c-5.11,2.1-7.55,7.95-5.45,13.06c1.73,4.21,10.46,9.4,14.2,11.48c0.9,0.49,2,0.05,2.28-0.94
	c1.21-4.11,3.77-13.94,2.03-18.15C-105.15,3.45-110.99,1.01-116.11,3.11z"/>
<path class="st54" d="M-88.6,44.84c-2.35,0.97-3.48,3.67-2.51,6.02c0.8,1.94,4.82,4.33,6.54,5.29c0.41,0.23,0.92,0.02,1.05-0.43
	c0.56-1.89,1.73-6.42,0.94-8.36C-83.55,45-86.24,43.88-88.6,44.84z"/>
<path class="st53" d="M-42.07,49.6c-5.35,2.2-7.91,8.33-5.71,13.68c1.82,4.41,10.95,9.85,14.87,12.02c0.94,0.52,2.09,0.05,2.39-0.99
	c1.26-4.3,3.94-14.6,2.13-19.01C-30.58,49.96-36.7,47.4-42.07,49.6z"/>
<path class="st55" d="M-71.24,15.12c-5.35,2.2-7.91,8.33-5.71,13.68c1.82,4.41,10.95,9.85,14.87,12.02
	c0.94,0.52,2.09,0.05,2.39-0.99c1.26-4.3,3.94-14.6,2.13-19.01C-59.76,15.48-65.88,12.92-71.24,15.12z"/>
<path class="st54" d="M-61.11,86.11c-5.11,2.1-7.55,7.95-5.45,13.06c1.73,4.21,10.46,9.4,14.2,11.48c0.9,0.49,2,0.05,2.28-0.94
	c1.21-4.11,3.77-13.94,2.03-18.15C-50.15,86.45-55.99,84.01-61.11,86.11z"/>
<path class="st54" d="M-33.6,127.84c-2.35,0.97-3.48,3.67-2.51,6.02c0.8,1.94,4.82,4.33,6.54,5.29c0.41,0.23,0.92,0.02,1.05-0.43
	c0.56-1.89,1.73-6.42,0.94-8.36C-28.55,128-31.24,126.88-33.6,127.84z"/>
<path class="st53" d="M12.93,132.6c-5.35,2.2-7.91,8.33-5.71,13.68c1.82,4.41,10.95,9.85,14.87,12.02c0.94,0.52,2.09,0.05,2.39-0.99
	c1.26-4.3,3.94-14.6,2.13-19.01C24.42,132.96,18.3,130.4,12.93,132.6z"/>
<path class="st55" d="M-16.24,98.12c-5.35,2.2-7.91,8.33-5.71,13.68c1.82,4.41,10.95,9.85,14.87,12.02
	c0.94,0.52,2.09,0.05,2.39-0.99c1.26-4.3,3.94-14.6,2.13-19.01C-4.76,98.48-10.88,95.92-16.24,98.12z"/>
<g>
</g>
<g>
</g>
<g>
</g>
<g>
</g>
<g>
</g>
<g>
</g>
<g>
</g>
<g>
</g>
<g>
</g>
<g>
</g>
<g>
</g>
<g>
</g>
<g>
</g>
<g>
</g>
<g>
</g>
</svg>
