<?xml version="1.0" encoding="utf-8"?>
<!-- Generator: Adobe Illustrator 27.0.0, SVG Export Plug-In . SVG Version: 6.00 Build 0)  -->
<svg version="1.1" id="Layer_1" xmlns="http://www.w3.org/2000/svg" xmlns:xlink="http://www.w3.org/1999/xlink" x="0px" y="0px"
	 width="654px" height="221px" viewBox="0 0 654 221" style="enable-background:new 0 0 654 221;" xml:space="preserve">
<style type="text/css">
	.st0{opacity:0.19;}
	.st1{fill:#D89B13;}
</style>
<g class="st0">
	<g>
		<g>
			<g>
				<g>
					<g>
						<g>
							<path class="st1" d="M521.19-0.09c-1.95,0-3.53-1.58-3.53-3.53c0-1.95,1.58-3.53,3.53-3.53c1.95,0,3.53,1.58,3.53,3.53
								C524.72-1.67,523.14-0.09,521.19-0.09z"/>
						</g>
					</g>
				</g>
			</g>
			<g>
				<g>
					<g>
						<g>
							<path class="st1" d="M521.19,13.78c-1.95,0-3.53-1.58-3.53-3.53s1.58-3.53,3.53-3.53c1.95,0,3.53,1.58,3.53,3.53
								S523.14,13.78,521.19,13.78z"/>
						</g>
					</g>
				</g>
			</g>
			<g>
				<g>
					<g>
						<g>
							<path class="st1" d="M521.19,27.65c-1.95,0-3.53-1.58-3.53-3.53c0-1.95,1.58-3.53,3.53-3.53c1.95,0,3.53,1.58,3.53,3.53
								C524.72,26.07,523.14,27.65,521.19,27.65z"/>
						</g>
					</g>
				</g>
			</g>
			<g>
				<g>
					<g>
						<g>
							<path class="st1" d="M521.19,41.51c-1.95,0-3.53-1.58-3.53-3.53c0-1.95,1.58-3.53,3.53-3.53c1.95,0,3.53,1.58,3.53,3.53
								C524.72,39.93,523.14,41.51,521.19,41.51z"/>
						</g>
					</g>
				</g>
			</g>
			<g>
				<g>
					<g>
						<g>
							<path class="st1" d="M521.19,55.38c-1.95,0-3.53-1.58-3.53-3.53s1.58-3.53,3.53-3.53c1.95,0,3.53,1.58,3.53,3.53
								S523.14,55.38,521.19,55.38z"/>
						</g>
					</g>
				</g>
			</g>
			<g>
				<g>
					<g>
						<g>
							<path class="st1" d="M521.19,69.25c-1.95,0-3.53-1.58-3.53-3.53c0-1.95,1.58-3.53,3.53-3.53c1.95,0,3.53,1.58,3.53,3.53
								C524.72,67.67,523.14,69.25,521.19,69.25z"/>
						</g>
					</g>
				</g>
			</g>
		</g>
	</g>
	<g>
		<g>
			<g>
				<g>
					<g>
						<g>
							<path class="st1" d="M505.83-0.09c-1.95,0-3.53-1.58-3.53-3.53c0-1.95,1.58-3.53,3.53-3.53c1.95,0,3.53,1.58,3.53,3.53
								C509.36-1.67,507.78-0.09,505.83-0.09z"/>
						</g>
					</g>
				</g>
			</g>
			<g>
				<g>
					<g>
						<g>
							<path class="st1" d="M505.83,13.78c-1.95,0-3.53-1.58-3.53-3.53s1.58-3.53,3.53-3.53c1.95,0,3.53,1.58,3.53,3.53
								S507.78,13.78,505.83,13.78z"/>
						</g>
					</g>
				</g>
			</g>
			<g>
				<g>
					<g>
						<g>
							<path class="st1" d="M505.83,27.65c-1.95,0-3.53-1.58-3.53-3.53c0-1.95,1.58-3.53,3.53-3.53c1.95,0,3.53,1.58,3.53,3.53
								C509.36,26.07,507.78,27.65,505.83,27.65z"/>
						</g>
					</g>
				</g>
			</g>
			<g>
				<g>
					<g>
						<g>
							<path class="st1" d="M505.83,41.51c-1.95,0-3.53-1.58-3.53-3.53c0-1.95,1.58-3.53,3.53-3.53c1.95,0,3.53,1.58,3.53,3.53
								C509.36,39.93,507.78,41.51,505.83,41.51z"/>
						</g>
					</g>
				</g>
			</g>
			<g>
				<g>
					<g>
						<g>
							<path class="st1" d="M505.83,55.38c-1.95,0-3.53-1.58-3.53-3.53s1.58-3.53,3.53-3.53c1.95,0,3.53,1.58,3.53,3.53
								S507.78,55.38,505.83,55.38z"/>
						</g>
					</g>
				</g>
			</g>
			<g>
				<g>
					<g>
						<g>
							<path class="st1" d="M505.83,69.25c-1.95,0-3.53-1.58-3.53-3.53c0-1.95,1.58-3.53,3.53-3.53c1.95,0,3.53,1.58,3.53,3.53
								C509.36,67.67,507.78,69.25,505.83,69.25z"/>
						</g>
					</g>
				</g>
			</g>
		</g>
	</g>
	<g>
		<g>
			<g>
				<g>
					<g>
						<g>
							<path class="st1" d="M490.46-0.09c-1.95,0-3.53-1.58-3.53-3.53c0-1.95,1.58-3.53,3.53-3.53c1.95,0,3.53,1.58,3.53,3.53
								C493.99-1.67,492.41-0.09,490.46-0.09z"/>
						</g>
					</g>
				</g>
			</g>
			<g>
				<g>
					<g>
						<g>
							<path class="st1" d="M490.46,13.78c-1.95,0-3.53-1.58-3.53-3.53s1.58-3.53,3.53-3.53c1.95,0,3.53,1.58,3.53,3.53
								S492.41,13.78,490.46,13.78z"/>
						</g>
					</g>
				</g>
			</g>
			<g>
				<g>
					<g>
						<g>
							<path class="st1" d="M490.46,27.65c-1.95,0-3.53-1.58-3.53-3.53c0-1.95,1.58-3.53,3.53-3.53c1.95,0,3.53,1.58,3.53,3.53
								C493.99,26.07,492.41,27.65,490.46,27.65z"/>
						</g>
					</g>
				</g>
			</g>
			<g>
				<g>
					<g>
						<g>
							<path class="st1" d="M490.46,41.51c-1.95,0-3.53-1.58-3.53-3.53c0-1.95,1.58-3.53,3.53-3.53c1.95,0,3.53,1.58,3.53,3.53
								C493.99,39.93,492.41,41.51,490.46,41.51z"/>
						</g>
					</g>
				</g>
			</g>
			<g>
				<g>
					<g>
						<g>
							<path class="st1" d="M490.46,55.38c-1.95,0-3.53-1.58-3.53-3.53s1.58-3.53,3.53-3.53c1.95,0,3.53,1.58,3.53,3.53
								S492.41,55.38,490.46,55.38z"/>
						</g>
					</g>
				</g>
			</g>
			<g>
				<g>
					<g>
						<g>
							<path class="st1" d="M490.46,69.25c-1.95,0-3.53-1.58-3.53-3.53c0-1.95,1.58-3.53,3.53-3.53c1.95,0,3.53,1.58,3.53,3.53
								C493.99,67.67,492.41,69.25,490.46,69.25z"/>
						</g>
					</g>
				</g>
			</g>
		</g>
	</g>
</g>
<g class="st0">
	<g>
		<g>
			<g>
				<polygon class="st1" points="246.5,79.31 399.97,232.77 391.5,232.77 238.04,79.31 				"/>
			</g>
		</g>
	</g>
	<g>
		<g>
			<g>
				<polygon class="st1" points="296.04,79.31 449.5,232.77 441.03,232.77 287.57,79.31 				"/>
			</g>
		</g>
	</g>
	<g>
		<g>
			<g>
				<polygon class="st1" points="345.57,79.31 499.03,232.77 490.56,232.77 337.1,79.31 				"/>
			</g>
		</g>
	</g>
	<g>
		<g>
			<g>
				<polygon class="st1" points="395.1,79.31 548.56,232.77 540.09,232.77 386.63,79.31 				"/>
			</g>
		</g>
	</g>
</g>
<g class="st0">
	<g>
		<g>
			<g>
				<g>
					<g>
						<g>
							<polygon class="st1" points="665.67,136.38 653.68,124.39 666.19,111.88 674.67,111.88 662.17,124.39 674.16,136.38 							
								"/>
						</g>
					</g>
				</g>
			</g>
		</g>
		<g>
			<g>
				<g>
					<g>
						<g>
							<polygon class="st1" points="644.92,136.38 632.93,124.39 645.44,111.88 653.92,111.88 641.42,124.39 653.41,136.38 							
								"/>
						</g>
					</g>
				</g>
			</g>
		</g>
		<g>
			<g>
				<g>
					<g>
						<g>
							<polygon class="st1" points="624.17,136.38 612.18,124.39 624.69,111.88 633.17,111.88 620.67,124.39 632.66,136.38 							
								"/>
						</g>
					</g>
				</g>
			</g>
		</g>
		<g>
			<g>
				<g>
					<g>
						<g>
							<polygon class="st1" points="603.42,136.38 591.43,124.39 603.94,111.88 612.42,111.88 599.92,124.39 611.91,136.38 							
								"/>
						</g>
					</g>
				</g>
			</g>
		</g>
	</g>
	<g>
		<g>
			<g>
				<g>
					<g>
						<g>
							<polygon class="st1" points="582.43,136.38 570.44,124.39 582.95,111.88 591.43,111.88 578.92,124.39 590.92,136.38 							
								"/>
						</g>
					</g>
				</g>
			</g>
		</g>
		<g>
			<g>
				<g>
					<g>
						<g>
							<polygon class="st1" points="561.68,136.38 549.69,124.39 562.2,111.88 570.68,111.88 558.17,124.39 570.17,136.38 							
								"/>
						</g>
					</g>
				</g>
			</g>
		</g>
		<g>
			<g>
				<g>
					<g>
						<g>
							<polygon class="st1" points="540.93,136.38 528.94,124.39 541.45,111.88 549.93,111.88 537.42,124.39 549.42,136.38 							
								"/>
						</g>
					</g>
				</g>
			</g>
		</g>
		<g>
			<g>
				<g>
					<g>
						<g>
							<polygon class="st1" points="520.18,136.38 508.19,124.39 520.7,111.88 529.18,111.88 516.67,124.39 528.67,136.38 							
								"/>
						</g>
					</g>
				</g>
			</g>
		</g>
	</g>
</g>
<g>
</g>
<g>
</g>
<g>
</g>
<g>
</g>
<g>
</g>
<g>
</g>
<g>
</g>
<g>
</g>
<g>
</g>
<g>
</g>
<g>
</g>
<g>
</g>
<g>
</g>
<g>
</g>
<g>
</g>
</svg>
